<svg width="24" height="32" viewBox="0 0 24 32" fill="none" xmlns="http://www.w3.org/2000/svg">
<path d="M4.56692 27.0103C0.221473 22.2944 -1.0937 16.8752 0.926092 10.7425C1.7656 8.1926 3.29021 6.0533 5.32715 4.29205C8.63963 1.42802 12.4934 0.198631 16.8448 0.50864C17.8612 0.580818 18.8723 0.726356 19.8349 1.09316C21.9215 1.88771 22.7971 4.16781 21.7618 6.1592C21.573 6.52186 21.3092 6.8585 21.027 7.15726C20.404 7.81692 19.8017 8.49018 19.3042 9.24982C18.3765 10.6662 17.7589 12.2079 17.4838 13.8804C17.0696 16.4001 17.3755 18.8311 18.4505 21.1514C19.0841 22.5193 19.9579 23.7214 21.0489 24.7662C21.6014 25.2951 21.9771 25.9359 22.1386 26.6849C22.4433 28.0953 22.0877 29.3063 20.9773 30.2523C20.3502 30.7866 19.5887 31.0421 18.7906 31.2025C15.4829 31.8692 12.2763 31.5509 9.18925 30.1813C7.46172 29.414 5.92646 28.3538 4.56692 27.0103ZM6.90145 7.34126C6.11519 8.12929 5.44843 9.0043 4.89941 9.97278C4.01435 11.5335 3.49254 13.206 3.36357 14.9909C3.12514 18.2951 4.04097 21.2425 6.14891 23.8114C7.30316 25.2176 8.71299 26.295 10.3494 27.0718C12.0622 27.8847 13.8784 28.2515 15.774 28.2308C16.5437 28.2225 17.3098 28.1917 18.057 27.9823C18.4079 27.8835 18.6114 27.6255 18.5948 27.2984C18.5741 26.8967 18.2594 26.644 17.8157 26.6931C17.3382 26.7458 16.8637 26.8405 16.3851 26.873C13.6909 27.0558 11.2445 26.3683 9.06323 24.7615C7.89123 23.8977 6.93281 22.8381 6.18323 21.5957C5.47624 20.4237 5.0059 19.1571 4.79351 17.8023C4.31371 14.7448 4.98105 11.9559 6.80798 9.45985C7.74984 8.17367 8.94372 7.15549 10.3459 6.39644C11.8722 5.56936 13.5098 5.10908 15.2474 5.09902C16.0473 5.09429 16.8478 5.20788 17.647 5.2836C17.9423 5.31141 18.2132 5.29839 18.4061 5.04636C18.709 4.65057 18.5043 4.13172 17.9943 3.99565C17.3021 3.81047 16.5946 3.77438 15.8816 3.76432C12.3911 3.71285 9.39809 4.90497 6.90145 7.34126ZM15.9231 23.5694C15.9035 23.4984 15.8964 23.441 15.8728 23.3913C15.7219 23.0748 15.5634 22.7612 15.4149 22.4429C15.351 22.3057 15.2457 22.2708 15.1054 22.2572C12.7206 22.0282 10.9316 20.8592 9.90333 18.7069C8.80292 16.4031 9.07151 14.1526 10.6174 12.121C11.6457 10.7691 13.0519 9.96805 14.7546 9.77755C15.1729 9.73081 15.4155 9.60361 15.5462 9.20545C15.6338 8.93922 15.7823 8.69311 15.9077 8.42984C13.8962 8.23638 10.9955 9.1386 9.22001 11.7843C7.70487 14.0414 7.32624 17.3822 9.26438 20.2611C10.7612 22.482 13.375 23.7522 15.9231 23.5694ZM14.2014 13.4154C13.5169 13.5752 12.6413 14.6673 12.5786 15.8446C12.5076 17.171 13.4619 18.3779 14.2174 18.5874C13.9323 16.8634 13.9323 15.1435 14.2014 13.4154Z" fill="white"/>
<path d="M23.0624 24.7667C20.2699 22.5718 18.727 19.7604 18.6447 16.2367C18.5578 12.5119 20.0966 9.5325 23.0334 7.18555C23.0624 7.31156 23.0825 7.37013 23.089 7.43048C23.1931 8.40133 23.3055 9.37099 23.3943 10.343C23.4611 11.0766 23.2085 11.7245 22.863 12.367C21.7555 14.4264 21.6407 16.5645 22.4767 18.7446C22.637 19.1635 22.8695 19.5551 23.0777 19.9545C23.3404 20.4574 23.4658 20.9951 23.4209 21.5548C23.3404 22.5564 23.2268 23.5551 23.1251 24.5549C23.1192 24.6093 23.0943 24.6608 23.0624 24.7667Z" fill="white"/>
</svg>
