<svg width="20" height="20" viewBox="0 0 20 20" fill="none" xmlns="http://www.w3.org/2000/svg">
<path d="M16.4822 0H3.46362C1.61933 0 0.208984 1.41034 0.208984 3.25464V16.2732C0.208984 18.1175 1.61933 19.5278 3.46362 19.5278H16.4822C18.3265 19.5278 19.7368 18.1175 19.7368 16.2732V3.25464C19.7368 1.41034 18.3265 0 16.4822 0ZM9.9729 6.50928C11.8172 6.50928 13.2275 7.91962 13.2275 9.76392C13.2275 11.6082 11.8172 13.0186 9.9729 13.0186C8.1286 13.0186 6.71826 11.6082 6.71826 9.76392C6.71826 7.91962 8.1286 6.50928 9.9729 6.50928ZM14.0954 4.33952C14.0954 3.5801 14.7464 3.03766 15.3973 3.03766C16.0482 3.03766 16.6992 3.68859 16.6992 4.33952C16.6992 4.99045 16.1567 5.64137 15.3973 5.64137C14.6379 5.64137 14.0954 5.09893 14.0954 4.33952ZM16.4822 17.3581H3.46362C2.8127 17.3581 2.37874 16.9241 2.37874 16.2732V9.76392H4.5485C4.5485 12.8016 6.93524 15.1883 9.9729 15.1883C13.0106 15.1883 15.3973 12.8016 15.3973 9.76392H17.5671V16.2732C17.5671 16.9241 17.1331 17.3581 16.4822 17.3581Z" fill="white"/>
</svg>
