<svg width="37" height="39" viewBox="0 0 37 39" fill="none" xmlns="http://www.w3.org/2000/svg">
<path d="M6.59315 33.3173C1.13976 27.3991 -0.510738 20.5981 2.02403 12.9018C3.07759 9.70176 4.99092 7.01701 7.54722 4.80669C11.7043 1.21243 16.5407 -0.330411 22.0015 0.0586399C23.277 0.14922 24.5459 0.331866 25.7539 0.792194C28.3726 1.78932 29.4714 4.65078 28.1721 7.14991C27.9353 7.60504 27.6041 8.0275 27.25 8.40244C26.4682 9.23029 25.7123 10.0752 25.0879 11.0285C23.9237 12.806 23.1486 14.7409 22.8034 16.8398C22.2836 20.0019 22.6675 23.0527 24.0165 25.9647C24.8117 27.6812 25.9083 29.1899 27.2774 30.5011C27.9709 31.1649 28.4424 31.969 28.6451 32.9089C29.0274 34.679 28.5812 36.1988 27.1876 37.386C26.4006 38.0564 25.445 38.3772 24.4435 38.5784C20.2923 39.4151 16.2682 39.0157 12.394 37.2969C10.226 36.3339 8.29933 35.0034 6.59315 33.3173ZM9.52291 8.63335C8.53618 9.62231 7.69942 10.7204 7.01042 11.9358C5.89969 13.8944 5.24484 15.9934 5.08298 18.2334C4.78377 22.3801 5.9331 26.079 8.5785 29.3028C10.027 31.0676 11.7963 32.4197 13.85 33.3945C15.9994 34.4147 18.2788 34.875 20.6576 34.849C21.6236 34.8386 22.5851 34.8 23.5228 34.5372C23.9631 34.4132 24.2185 34.0895 24.1977 33.6789C24.1717 33.1747 23.7767 32.8577 23.2199 32.9193C22.6207 32.9854 22.0253 33.1042 21.4246 33.145C18.0434 33.3745 14.9733 32.5117 12.2359 30.4952C10.7651 29.4112 9.56226 28.0814 8.62156 26.5223C7.73432 25.0514 7.14406 23.4618 6.87752 21.7616C6.27538 17.9245 7.11288 14.4246 9.4056 11.2921C10.5876 9.678 12.0859 8.40022 13.8455 7.44764C15.7611 6.40967 17.8162 5.83204 19.9968 5.81941C21.0007 5.81347 22.0052 5.95603 23.0083 6.05106C23.3788 6.08596 23.7188 6.06962 23.9609 5.75333C24.341 5.25663 24.0841 4.60549 23.4441 4.43472C22.5754 4.20233 21.6874 4.15704 20.7928 4.14442C16.4122 4.07982 12.6561 5.57589 9.52291 8.63335ZM20.8447 28.9991C20.8202 28.91 20.8113 28.838 20.7816 28.7756C20.5923 28.3784 20.3933 27.9849 20.207 27.5855C20.1268 27.4132 19.9946 27.3694 19.8187 27.3523C16.8258 27.065 14.5806 25.5979 13.2902 22.8968C11.9092 20.0057 12.2463 17.1813 14.1863 14.6317C15.4767 12.9352 17.2416 11.9299 19.3784 11.6908C19.9033 11.6322 20.2077 11.4725 20.3718 10.9729C20.4817 10.6387 20.668 10.3299 20.8254 9.99948C18.3011 9.7567 14.6608 10.889 12.4326 14.2093C10.5312 17.0417 10.056 21.2344 12.4883 24.8473C14.3667 27.6345 17.6469 29.2285 20.8447 28.9991ZM18.6842 16.2562C17.8251 16.4567 16.7263 17.8273 16.6476 19.3048C16.5585 20.9694 17.7561 22.484 18.7042 22.7468C18.3463 20.5833 18.3463 18.425 18.6842 16.2562Z" fill="white"/>
<path d="M29.804 30.5019C26.2996 27.7474 24.3633 24.2192 24.2601 19.7971C24.1509 15.1225 26.0821 11.3835 29.7677 8.43811C29.804 8.59626 29.8293 8.66976 29.8374 8.74549C29.9681 9.96387 30.1092 11.1808 30.2206 12.4006C30.3045 13.3213 29.9874 14.1343 29.5538 14.9406C28.1639 17.5251 28.0199 20.2084 29.069 22.9444C29.2702 23.47 29.562 23.9615 29.8233 24.4627C30.153 25.0938 30.3104 25.7687 30.254 26.4711C30.153 27.7281 30.0104 28.9813 29.8827 30.2361C29.8753 30.3044 29.8441 30.369 29.804 30.5019Z" fill="white"/>
</svg>
