<svg width="22" height="17" viewBox="0 0 22 17" fill="none" xmlns="http://www.w3.org/2000/svg">
<path d="M21.4549 2.0092C20.673 2.35562 19.8435 2.58289 18.9942 2.68345C19.8888 2.14817 20.5582 1.30587 20.8778 0.313533C20.0369 0.812726 19.1167 1.16424 18.1572 1.35285C17.7563 0.925248 17.2718 0.584537 16.7339 0.351828C16.1959 0.119118 15.6159 -0.000630347 15.0297 2.49526e-06C12.6636 2.49526e-06 10.745 1.91807 10.745 4.28473C10.745 4.62023 10.783 4.9476 10.8562 5.2614C7.29509 5.08266 4.13809 3.37669 2.02474 0.784099C1.6437 1.43803 1.44347 2.18155 1.4446 2.9384C1.44404 3.64384 1.61774 4.33851 1.95028 4.96066C2.28281 5.58281 2.76388 6.11319 3.35074 6.50467C2.67044 6.48306 2.00513 6.29932 1.41016 5.96874C1.40962 5.98664 1.40962 6.00427 1.40962 6.02271C1.40962 8.09809 2.88641 9.82983 4.84624 10.2239C4.21518 10.3947 3.55353 10.4198 2.91136 10.2971C3.45651 11.999 5.03881 13.2382 6.91375 13.273C5.39598 14.464 3.52175 15.1101 1.59242 15.1072C1.24661 15.1072 0.905689 15.0872 0.57019 15.0473C2.5293 16.3061 4.8094 16.9742 7.13805 16.9719C15.0192 16.9719 19.3288 10.4433 19.3288 4.78188C19.3288 4.59637 19.3245 4.41112 19.3164 4.22696C20.1557 3.62103 20.8799 2.86997 21.4549 2.0092Z" fill="white"/>
</svg>
